<?xml version="1.0" encoding="UTF-8" standalone="no"?>
<svg
   xmlns:dc="http://purl.org/dc/elements/1.1/"
   xmlns:cc="http://creativecommons.org/ns#"
   xmlns:rdf="http://www.w3.org/1999/02/22-rdf-syntax-ns#"
   xmlns:svg="http://www.w3.org/2000/svg"
   xmlns="http://www.w3.org/2000/svg"
   xmlns:sodipodi="http://sodipodi.sourceforge.net/DTD/sodipodi-0.dtd"
   xmlns:inkscape="http://www.inkscape.org/namespaces/inkscape"
   version="1.1"
   id="Layer_1"
   x="0px"
   y="0px"
   viewBox="0 0 70.833 100"
   enable-background="new 0 0 70.833 100"
   xml:space="preserve"
   inkscape:version="0.91 r13725"
   sodipodi:docname="icon-same-idea.svg"><metadata
     id="metadata39"><rdf:RDF><cc:Work
         rdf:about=""><dc:format>image/svg+xml</dc:format><dc:type
           rdf:resource="http://purl.org/dc/dcmitype/StillImage" /><dc:title /></cc:Work></rdf:RDF></metadata><defs
     id="defs37" /><sodipodi:namedview
     pagecolor="#ffffff"
     bordercolor="#666666"
     borderopacity="1"
     objecttolerance="10"
     gridtolerance="10"
     guidetolerance="10"
     inkscape:pageopacity="0"
     inkscape:pageshadow="2"
     inkscape:window-width="1453"
     inkscape:window-height="795"
     id="namedview35"
     showgrid="false"
     inkscape:zoom="3.337544"
     inkscape:cx="31.620746"
     inkscape:cy="33.321583"
     inkscape:window-x="0"
     inkscape:window-y="0"
     inkscape:window-maximized="0"
     inkscape:current-layer="g3" /><!-- From the Noun Project: #27467 (public domain) --><g
     id="g3"><circle
       class="same-idea"
       fill="#222"
       cx="10.417"
       cy="77.083"
       r="6.25"
       id="circle5" /><path
       class="same-idea"
       fill="#222"
       d="M10.417,85.417C4.663,85.417,0,90.079,0,95.833V100h20.833v-4.167   C20.833,90.079,16.17,85.417,10.417,85.417z"
       id="path7" /><circle
       class="same-idea"
       fill="#222"
       cx="35.417"
       cy="77.083"
       r="6.25"
       id="circle9" /><path
       class="same-idea"
       d="M35.417,85.417C29.663,85.417,25,90.079,25,95.833V100h20.833v-4.167   C45.833,90.079,41.17,85.417,35.417,85.417z"
       id="path11"
       fill="#222" /><circle
       class="same-idea"
       fill="#222"
       cx="60.417"
       cy="77.083"
       r="6.25"
       id="circle13" /><path
       class="same-idea"
       d="M60.417,85.417C54.663,85.417,50,90.079,50,95.833V100h20.832v-4.167   C70.833,90.079,66.17,85.417,60.417,85.417z"
       id="path15"
       fill="#222" /><path
       class="same-idea"
       fill="#222"
       d="M58.333,66.667c0.639,0,1.256-0.293,1.656-0.818c0.541-0.708,0.571-1.68,0.078-2.421   c-0.033-0.051-2.929-4.443-3.653-9.261h4.003c3.446,0,6.25-2.804,6.25-6.25V6.25c0-3.446-2.804-6.25-6.25-6.25h-50   c-3.446,0-6.25,2.804-6.25,6.25v41.667c0,3.447,2.804,6.25,6.25,6.25h4.001c-0.727,4.8-3.62,9.214-3.653,9.264   c-0.491,0.74-0.46,1.711,0.082,2.418c0.403,0.525,1.019,0.818,1.654,0.818c0.22,0,0.441-0.035,0.658-0.109   c0.526-0.174,11.997-4.1,13.705-12.391h2.884l3.692,11.076c0.283,0.85,1.078,1.424,1.976,1.424s1.693-0.574,1.977-1.424   l3.691-11.076h2.875c1.705,8.295,13.188,12.218,13.715,12.391C57.891,66.632,58.114,66.667,58.333,66.667z M47.917,52.083   c0-1.151-0.934-2.083-2.084-2.083h-6.25c-0.897,0-1.691,0.574-1.976,1.425l-2.19,6.57l-2.19-6.57   c-0.291-0.873-1.104-1.416-1.976-1.415V50H25c-1.15,0-2.083,0.932-2.083,2.083c0,3.334-2.858,6.074-5.814,7.959   c0.894-2.318,1.648-5.119,1.648-7.959c0-1.151-0.933-2.083-2.083-2.083h-6.25c-1.149,0-2.083-0.933-2.083-2.083V6.25   c0-1.15,0.935-2.083,2.083-2.083h50c1.148,0,2.084,0.933,2.084,2.083v41.667c0,1.15-0.936,2.083-2.084,2.083h-6.25   c-1.15,0-2.084,0.932-2.084,2.083c0,2.832,0.752,5.623,1.641,7.939C50.868,58.224,47.917,55.531,47.917,52.083z"
       id="path17" /></g><path
     d="m 35.487292,25.630753 c -0.4953,0 -0.897197,0.40156 -0.897197,0.897663 0,0.494759 0.401897,0.897191 0.897197,0.897191 2.547642,0 4.619944,-2.07311 4.619944,-4.620485 0,-2.547377 -2.072302,-4.619677 -4.619944,-4.619677 -0.4953,0 -0.897197,0.401626 -0.897197,0.897191 0,0.495297 0.401897,0.896852 0.897197,0.896852 1.558047,0 2.825625,1.267779 2.825625,2.825634 0,1.558596 -1.267578,2.82563 -2.825625,2.82563"
     style="fill:#ffd700;fill-opacity:1;fill-rule:nonzero;stroke:none"
     id="path3370"
     inkscape:connector-curvature="0"
     inkscape:export-filename="C:\Users\Phil\Desktop\logos\99designs\logo-on-black-32px.png"
     inkscape:export-xdpi="52.404125"
     inkscape:export-ydpi="52.404125" /><path
     d="m 35.487292,30.65461 c 4.328323,0 7.849487,-3.521169 7.849487,-7.849488 0,-4.328318 -3.521164,-7.849487 -7.849487,-7.849487 -4.328313,0 -7.849486,3.521169 -7.849486,7.849487 0,0.495567 0.401286,0.897193 0.896853,0.897193 0.495568,0 0.896923,-0.401626 0.896923,-0.897193 0,-3.338801 2.716914,-6.055439 6.05571,-6.055439 3.338728,0 6.055703,2.716638 6.055703,6.055439 0,3.338735 -2.716975,6.05544 -6.055703,6.05544 -0.4953,0 -0.897197,0.401626 -0.897197,0.897729 0,0.494759 0.401897,0.896319 0.897197,0.896319"
     style="fill:#ffd700;fill-opacity:1;fill-rule:nonzero;stroke:none"
     id="path3372"
     inkscape:connector-curvature="0"
     inkscape:export-filename="C:\Users\Phil\Desktop\logos\99designs\logo-on-black-32px.png"
     inkscape:export-xdpi="52.404125"
     inkscape:export-ydpi="52.404125" /><path
     d="m 35.487292,11.725757 c -6.108994,0 -11.079099,4.970103 -11.079099,11.079365 0,4.466138 2.69648,8.49127 6.773896,10.211335 l 0,2.206695 c 0,0.453567 0.336447,0.827576 0.773215,0.888455 0.0604,0.03548 0.126796,0.06303 0.198759,0.08138 1.088497,0.265891 2.212941,0.401089 3.343442,0.401089 1.0809,0 2.157644,-0.124177 3.200979,-0.366954 0.386109,-0.09058 0.625788,-0.476414 0.535481,-0.86225 -0.09004,-0.385836 -0.474875,-0.625991 -0.861715,-0.535479 -1.756014,0.409487 -3.625452,0.433879 -5.395852,0.07485 l 0,-2.501479 c 0,-0.379318 -0.239687,-0.717915 -0.597971,-0.845182 -3.693587,-1.312392 -6.176183,-4.829662 -6.176183,-8.752458 0,-5.119678 4.165571,-9.28451 9.285048,-9.28451 5.119942,0 9.284773,4.164832 9.284773,9.284509 0,5.119679 -4.164831,9.285317 -9.284773,9.285317 -0.4953,0 -0.897197,0.401559 -0.897197,0.896318 0,0.496103 0.401897,0.897729 0.897197,0.897729 6.108995,0 11.079083,-4.970101 11.079083,-11.079364 0,-6.109262 -4.970088,-11.079365 -11.079083,-11.079365"
     style="fill:#ffd700;fill-opacity:1;fill-rule:nonzero;stroke:none"
     id="path3374"
     inkscape:connector-curvature="0"
     inkscape:export-filename="C:\Users\Phil\Desktop\logos\99designs\logo-on-black-32px.png"
     inkscape:export-xdpi="52.404125"
     inkscape:export-ydpi="52.404125" /><path
     d="m 38.428898,37.275766 c -1.96674,0.374009 -4.043748,0.364804 -6.006591,-0.02762 -0.388982,-0.07741 -0.767236,0.174574 -0.844439,0.563029 -0.07795,0.388524 0.174298,0.766497 0.563023,0.843907 1.097436,0.21919 2.227197,0.330735 3.356614,0.330735 1.07566,0 2.152396,-0.101062 3.199706,-0.299758 0.389197,-0.07432 0.644871,-0.449671 0.571153,-0.839404 -0.07382,-0.388993 -0.449941,-0.644403 -0.839466,-0.570891"
     style="fill:#ffd700;fill-opacity:1;fill-rule:nonzero;stroke:none"
     id="path3376"
     inkscape:connector-curvature="0"
     inkscape:export-filename="C:\Users\Phil\Desktop\logos\99designs\logo-on-black-32px.png"
     inkscape:export-xdpi="52.404125"
     inkscape:export-ydpi="52.404125" /><path
     d="m 37.008118,39.770593 c -1.043137,0.08668 -2.115372,0.08272 -3.156092,-0.01176 -0.393233,-0.03548 -0.744117,0.254603 -0.779806,0.649643 -0.03596,0.394505 0.254607,0.744122 0.649646,0.779534 0.585806,0.05383 1.18351,0.08083 1.775639,0.08083 0.543337,0 1.091173,-0.02304 1.630018,-0.06766 0.39504,-0.03286 0.688218,-0.379854 0.655153,-0.775635 -0.03278,-0.394301 -0.38086,-0.687743 -0.774558,-0.654952"
     style="fill:#ffd700;fill-opacity:1;fill-rule:nonzero;stroke:none"
     id="path3378"
     inkscape:connector-curvature="0"
     inkscape:export-filename="C:\Users\Phil\Desktop\logos\99designs\logo-on-black-32px.png"
     inkscape:export-xdpi="52.404125"
     inkscape:export-ydpi="52.404125" /></svg>