<svg xmlns="http://www.w3.org/2000/svg" xmlns:xlink="http://www.w3.org/1999/xlink" version="1.1" id="Layer_1" x="0px" y="0px" viewBox="0 0 70.833 100" enable-background="new 0 0 70.833 100" xml:space="preserve">
	<!-- From the Noun Project: #27467 (public domain) -->
<g>
	<circle class="same-idea" fill="#222" cx="10.417" cy="77.083" r="6.25"/>
	<path class="same-idea" fill="#222" d="M10.417,85.417C4.663,85.417,0,90.079,0,95.833V100h20.833v-4.167   C20.833,90.079,16.17,85.417,10.417,85.417z"/>
	<circle class="same-idea" fill="#222" cx="35.417" cy="77.083" r="6.25"/>
	<path class="same-idea" fill="#222" d="M35.417,85.417C29.663,85.417,25,90.079,25,95.833V100h20.833v-4.167   C45.833,90.079,41.17,85.417,35.417,85.417z"/>
	<circle class="same-idea" fill="#222" cx="60.417" cy="77.083" r="6.25"/>
	<path class="same-idea" fill="#222" d="M60.417,85.417C54.663,85.417,50,90.079,50,95.833V100h20.832v-4.167   C70.833,90.079,66.17,85.417,60.417,85.417z"/>
	<path class="same-idea" fill="#222" d="M58.333,66.667c0.639,0,1.256-0.293,1.656-0.818c0.541-0.708,0.571-1.68,0.078-2.421   c-0.033-0.051-2.929-4.443-3.653-9.261h4.003c3.446,0,6.25-2.804,6.25-6.25V6.25c0-3.446-2.804-6.25-6.25-6.25h-50   c-3.446,0-6.25,2.804-6.25,6.25v41.667c0,3.447,2.804,6.25,6.25,6.25h4.001c-0.727,4.8-3.62,9.214-3.653,9.264   c-0.491,0.74-0.46,1.711,0.082,2.418c0.403,0.525,1.019,0.818,1.654,0.818c0.22,0,0.441-0.035,0.658-0.109   c0.526-0.174,11.997-4.1,13.705-12.391h2.884l3.692,11.076c0.283,0.85,1.078,1.424,1.976,1.424s1.693-0.574,1.977-1.424   l3.691-11.076h2.875c1.705,8.295,13.188,12.218,13.715,12.391C57.891,66.632,58.114,66.667,58.333,66.667z M47.917,52.083   c0-1.151-0.934-2.083-2.084-2.083h-6.25c-0.897,0-1.691,0.574-1.976,1.425l-2.19,6.57l-2.19-6.57   c-0.291-0.873-1.104-1.416-1.976-1.415V50H25c-1.15,0-2.083,0.932-2.083,2.083c0,3.334-2.858,6.074-5.814,7.959   c0.894-2.318,1.648-5.119,1.648-7.959c0-1.151-0.933-2.083-2.083-2.083h-6.25c-1.149,0-2.083-0.933-2.083-2.083V6.25   c0-1.15,0.935-2.083,2.083-2.083h50c1.148,0,2.084,0.933,2.084,2.083v41.667c0,1.15-0.936,2.083-2.084,2.083h-6.25   c-1.15,0-2.084,0.932-2.084,2.083c0,2.832,0.752,5.623,1.641,7.939C50.868,58.224,47.917,55.531,47.917,52.083z"/>
	<path class="same-idea-light" fill="gold" d="M35.417,16.667c-4.602,0-8.333,3.731-8.333,8.333c0,3.076,1.609,4.867,3.04,7.354   c0.533,0.928,1.127,3.062,1.127,4.104c0,0.575,0.466,1.042,1.042,1.042h6.25c0.575,0,1.041-0.467,1.041-1.042   c0-1.042,0.595-3.177,1.128-4.104c1.431-2.487,3.04-4.278,3.04-7.354C43.75,20.398,40.018,16.667,35.417,16.667z"/>
	<path class="same-idea" fill="#222" d="M38.542,39.583h-6.25c-0.575,0-1.042,0.466-1.042,1.042s0.466,1.042,1.042,1.042h6.25   c0.575,0,1.041-0.466,1.041-1.042S39.117,39.583,38.542,39.583z"/>
	<path class="same-idea" fill="#222" d="M36.979,43.75h-3.125c-0.575,0-1.042,0.467-1.042,1.042c0,0.575,0.466,1.042,1.042,1.042h3.125   c0.575,0,1.041-0.467,1.041-1.042C38.02,44.217,37.554,43.75,36.979,43.75z"/>
	<path class="same-idea-light" fill="gold" d="M35.417,14.583c0.575,0,1.042-0.467,1.042-1.042V9.375c0-0.575-0.466-1.042-1.042-1.042   S34.375,8.8,34.375,9.375v4.167C34.375,14.117,34.841,14.583,35.417,14.583z"/>
	<path class="same-idea-light" fill="gold" d="M23.958,23.958h-4.167c-0.575,0-1.042,0.466-1.042,1.042s0.466,1.042,1.042,1.042h4.167   C24.533,26.042,25,25.575,25,25S24.533,23.958,23.958,23.958z"/>
	<path class="same-idea-light" fill="gold" d="M27.641,15.751l-2.946-2.946c-0.407-0.407-1.066-0.407-1.473,0s-0.407,1.066,0,1.473l2.946,2.946   c0.204,0.204,0.471,0.305,0.737,0.305c0.266,0,0.533-0.102,0.736-0.305C28.047,16.817,28.047,16.158,27.641,15.751z"/>
	<path class="same-idea-light" fill="gold" d="M47.612,12.805c-0.407-0.407-1.066-0.407-1.474,0l-2.946,2.946c-0.406,0.407-0.406,1.066,0,1.473   c0.204,0.204,0.471,0.305,0.736,0.305c0.267,0,0.533-0.102,0.737-0.305l2.946-2.946C48.018,13.871,48.018,13.212,47.612,12.805z"/>
	<path class="same-idea-light" fill="gold" d="M51.042,23.958h-4.166c-0.576,0-1.043,0.466-1.043,1.042s0.467,1.042,1.043,1.042h4.166   c0.575,0,1.041-0.466,1.041-1.042S51.617,23.958,51.042,23.958z"/>
</g>
</svg>