<?xml version="1.0" encoding="UTF-8" standalone="no"?>
<svg
   xmlns:dc="http://purl.org/dc/elements/1.1/"
   xmlns:cc="http://creativecommons.org/ns#"
   xmlns:rdf="http://www.w3.org/1999/02/22-rdf-syntax-ns#"
   xmlns:svg="http://www.w3.org/2000/svg"
   xmlns="http://www.w3.org/2000/svg"
   xmlns:sodipodi="http://sodipodi.sourceforge.net/DTD/sodipodi-0.dtd"
   xmlns:inkscape="http://www.inkscape.org/namespaces/inkscape"
   version="1.1"
   id="Layer_1"
   x="0px"
   y="0px"
   viewBox="0 0 70.833 100"
   enable-background="new 0 0 70.833 100"
   xml:space="preserve"
   inkscape:version="0.91 r13725"
   sodipodi:docname="icon-same-idea-new.svg"><metadata
     id="metadata39"><rdf:RDF><cc:Work
         rdf:about=""><dc:format>image/svg+xml</dc:format><dc:type
           rdf:resource="http://purl.org/dc/dcmitype/StillImage" /><dc:title></dc:title></cc:Work></rdf:RDF></metadata><defs
     id="defs37" /><sodipodi:namedview
     pagecolor="#ffffff"
     bordercolor="#666666"
     borderopacity="1"
     objecttolerance="10"
     gridtolerance="10"
     guidetolerance="10"
     inkscape:pageopacity="0"
     inkscape:pageshadow="2"
     inkscape:window-width="1453"
     inkscape:window-height="795"
     id="namedview35"
     showgrid="false"
     inkscape:zoom="3.337544"
     inkscape:cx="82.706215"
     inkscape:cy="33.321583"
     inkscape:window-x="0"
     inkscape:window-y="0"
     inkscape:window-maximized="0"
     inkscape:current-layer="g3" /><!-- From the Noun Project: #27467 (public domain) --><g
     id="g3"><circle
       class="same-idea"
       fill="#222"
       cx="10.417"
       cy="77.083"
       r="6.25"
       id="circle5" /><path
       class="same-idea"
       fill="#222"
       d="M10.417,85.417C4.663,85.417,0,90.079,0,95.833V100h20.833v-4.167   C20.833,90.079,16.17,85.417,10.417,85.417z"
       id="path7" /><circle
       class="same-idea"
       fill="#222"
       cx="35.417"
       cy="77.083"
       r="6.25"
       id="circle9" /><path
       class="same-idea"
       fill="#222"
       d="M35.417,85.417C29.663,85.417,25,90.079,25,95.833V100h20.833v-4.167   C45.833,90.079,41.17,85.417,35.417,85.417z"
       id="path11" /><circle
       class="same-idea"
       fill="#222"
       cx="60.417"
       cy="77.083"
       r="6.25"
       id="circle13" /><path
       class="same-idea"
       fill="#222"
       d="M60.417,85.417C54.663,85.417,50,90.079,50,95.833V100h20.832v-4.167   C70.833,90.079,66.17,85.417,60.417,85.417z"
       id="path15" /><path
       class="same-idea"
       fill="#222"
       d="M58.333,66.667c0.639,0,1.256-0.293,1.656-0.818c0.541-0.708,0.571-1.68,0.078-2.421   c-0.033-0.051-2.929-4.443-3.653-9.261h4.003c3.446,0,6.25-2.804,6.25-6.25V6.25c0-3.446-2.804-6.25-6.25-6.25h-50   c-3.446,0-6.25,2.804-6.25,6.25v41.667c0,3.447,2.804,6.25,6.25,6.25h4.001c-0.727,4.8-3.62,9.214-3.653,9.264   c-0.491,0.74-0.46,1.711,0.082,2.418c0.403,0.525,1.019,0.818,1.654,0.818c0.22,0,0.441-0.035,0.658-0.109   c0.526-0.174,11.997-4.1,13.705-12.391h2.884l3.692,11.076c0.283,0.85,1.078,1.424,1.976,1.424s1.693-0.574,1.977-1.424   l3.691-11.076h2.875c1.705,8.295,13.188,12.218,13.715,12.391C57.891,66.632,58.114,66.667,58.333,66.667z M47.917,52.083   c0-1.151-0.934-2.083-2.084-2.083h-6.25c-0.897,0-1.691,0.574-1.976,1.425l-2.19,6.57l-2.19-6.57   c-0.291-0.873-1.104-1.416-1.976-1.415V50H25c-1.15,0-2.083,0.932-2.083,2.083c0,3.334-2.858,6.074-5.814,7.959   c0.894-2.318,1.648-5.119,1.648-7.959c0-1.151-0.933-2.083-2.083-2.083h-6.25c-1.149,0-2.083-0.933-2.083-2.083V6.25   c0-1.15,0.935-2.083,2.083-2.083h50c1.148,0,2.084,0.933,2.084,2.083v41.667c0,1.15-0.936,2.083-2.084,2.083h-6.25   c-1.15,0-2.084,0.932-2.084,2.083c0,2.832,0.752,5.623,1.641,7.939C50.868,58.224,47.917,55.531,47.917,52.083z"
       id="path17" /></g><path
     d="m 35.487293,26.089294 c -0.57567,0 -1.04278,0.466718 -1.04278,1.04332 0,0.57504 0.46711,1.042773 1.04278,1.042773 2.96103,0 5.36959,-2.4095 5.36959,-5.37022 0,-2.960723 -2.40856,-5.369281 -5.36959,-5.369281 -0.57567,0 -1.04278,0.466795 -1.04278,1.042772 0,0.575665 0.46711,1.042378 1.04278,1.042378 1.81086,0 3.28412,1.473493 3.28412,3.284131 0,1.811498 -1.47326,3.284126 -3.28412,3.284126"
     style="fill:#ffd700;fill-opacity:1;fill-rule:nonzero;stroke:none"
     id="path3370"
     inkscape:connector-curvature="0"
     inkscape:export-filename="C:\Users\Phil\Desktop\logos\99designs\logo-on-black-32px.png"
     inkscape:export-xdpi="52.404125"
     inkscape:export-ydpi="52.404125" /><path
     d="m 35.487293,31.928338 c 5.03065,0 9.12317,-4.092525 9.12317,-9.123171 0,-5.030645 -4.09252,-9.12317 -9.12317,-9.12317 -5.03064,0 -9.12317,4.092525 -9.12317,9.12317 0,0.575979 0.4664,1.042774 1.04238,1.042774 0.57598,0 1.04246,-0.466795 1.04246,-1.042774 0,-3.880566 3.15777,-7.038015 7.03833,-7.038015 3.88048,0 7.03832,3.157449 7.03832,7.038015 0,3.880488 -3.15784,7.038015 -7.03832,7.038015 -0.57567,0 -1.04278,0.466795 -1.04278,1.043397 0,0.575041 0.46711,1.041759 1.04278,1.041759"
     style="fill:#ffd700;fill-opacity:1;fill-rule:nonzero;stroke:none"
     id="path3372"
     inkscape:connector-curvature="0"
     inkscape:export-filename="C:\Users\Phil\Desktop\logos\99designs\logo-on-black-32px.png"
     inkscape:export-xdpi="52.404125"
     inkscape:export-ydpi="52.404125" /><path
     d="m 35.487293,9.928028 c -7.10026,0 -12.87683,5.776568 -12.87683,12.877139 0,5.190827 3.13402,9.86909 7.87305,11.868259 l 0,2.56476 c 0,0.527165 0.39104,0.961862 0.89868,1.032619 0.0702,0.04124 0.14737,0.07326 0.23101,0.09458 1.26512,0.309036 2.57202,0.466171 3.88596,0.466171 1.25629,0 2.50775,-0.144326 3.72038,-0.426497 0.44876,-0.105277 0.72733,-0.553719 0.62237,-1.002161 -0.10465,-0.448443 -0.55193,-0.727567 -1.00154,-0.622368 -2.04095,0.475932 -4.21373,0.504282 -6.2714,0.087 l 0,-2.907377 c 0,-0.440867 -0.27858,-0.834406 -0.695,-0.982324 -4.29292,-1.525345 -7.17835,-5.613339 -7.17835,-10.17266 0,-5.950414 4.84149,-10.791045 10.79167,-10.791045 5.95072,0 10.79135,4.840631 10.79135,10.791044 0,5.950414 -4.84063,10.791982 -10.79135,10.791982 -0.57567,0 -1.04278,0.466717 -1.04278,1.041758 0,0.576602 0.46711,1.043397 1.04278,1.043397 7.10026,0 12.87681,-5.776565 12.87681,-12.877137 0,-7.100571 -5.77655,-12.877139 -12.87681,-12.877139"
     style="fill:#ffd700;fill-opacity:1;fill-rule:nonzero;stroke:none"
     id="path3374"
     inkscape:connector-curvature="0"
     inkscape:export-filename="C:\Users\Phil\Desktop\logos\99designs\logo-on-black-32px.png"
     inkscape:export-xdpi="52.404125"
     inkscape:export-ydpi="52.404125" /><path
     d="m 38.906213,39.623864 c -2.28587,0.434697 -4.6999,0.423998 -6.98124,-0.0321 -0.4521,-0.08997 -0.89173,0.2029 -0.98146,0.654388 -0.0906,0.451567 0.20258,0.890871 0.65438,0.980841 1.27551,0.254757 2.58859,0.384402 3.90127,0.384402 1.2502,0 2.50165,-0.117461 3.7189,-0.348398 0.45235,-0.08638 0.74951,-0.522636 0.66383,-0.975608 -0.0858,-0.452113 -0.52295,-0.748966 -0.97568,-0.663526"
     style="fill:#ffd700;fill-opacity:1;fill-rule:nonzero;stroke:none"
     id="path3376"
     inkscape:connector-curvature="0"
     inkscape:export-filename="C:\Users\Phil\Desktop\logos\99designs\logo-on-black-32px.png"
     inkscape:export-xdpi="52.404125"
     inkscape:export-ydpi="52.404125" /><path
     d="m 37.254893,42.52351 c -1.2124,0.100747 -2.45862,0.09614 -3.66821,-0.01367 -0.45704,-0.04124 -0.86486,0.295916 -0.90634,0.755057 -0.0418,0.458518 0.29592,0.864865 0.75506,0.906023 0.68086,0.06256 1.37555,0.09395 2.06376,0.09395 0.6315,0 1.26823,-0.02678 1.89451,-0.07864 0.45914,-0.03819 0.79989,-0.441491 0.76146,-0.901492 -0.0381,-0.458282 -0.44266,-0.799339 -0.90024,-0.761227"
     style="fill:#ffd700;fill-opacity:1;fill-rule:nonzero;stroke:none"
     id="path3378"
     inkscape:connector-curvature="0"
     inkscape:export-filename="C:\Users\Phil\Desktop\logos\99designs\logo-on-black-32px.png"
     inkscape:export-xdpi="52.404125"
     inkscape:export-ydpi="52.404125" /></svg>